<svg fill="#000000" xmlns="http://www.w3.org/2000/svg"  viewBox="0 0 50 50" width="100px" height="100px"><path d="M2.005 19.004l.02.01 17.993 7.188L2 34.971 2.005 19M1.999 17.001C.943 17.001 0 17.853 0 19.003v15.967c0 1.159.951 2.003 2.001 2.003.296 0 .601-.067.894-.214l18-8.76c1.531-.766 1.455-2.976-.125-3.635l-18-7.208C2.514 17.051 2.253 17.001 1.999 17.001L1.999 17.001zM48 19.004L48 19.004v16.56l-19 7.435-.006-16.627L48 19.004M48.002 17.001c-.241 0-.488.044-.731.139l-19 7.365C27.505 24.806 27 25.545 27 26.368v16.63C27 44.146 27.94 45 28.998 45c.241 0 .488-.044.731-.139l19-7.435c.767-.3 1.271-1.039 1.271-1.862v-16.56C50 17.856 49.06 17.001 48.002 17.001L48.002 17.001z"/><g><path d="M24.418,23.014c-0.399,0-0.805-0.079-1.182-0.239L4.245,15.341C3.478,15.017,2.999,14.293,3,13.488c0-0.805,0.48-1.528,1.223-1.841l18.742-7.331c0.979-0.41,2.101-0.41,3.081-0.002l19.687,7.31c0.784,0.326,1.267,1.049,1.268,1.859c0,0.81-0.481,1.535-1.229,1.847l-20.246,7.467C25.182,22.94,24.803,23.014,24.418,23.014z M24.498,6.009c-0.265,0-0.525,0.052-0.769,0.155l-0.024,0.01L4.976,13.5l19.017,7.423c0.274,0.116,0.558,0.116,0.801,0.012l20.247-7.467L25.313,6.175C25.046,6.064,24.77,6.009,24.498,6.009z"/></g></svg>