<svg width="12" height="22" viewBox="0 0 12 22" fill="none" xmlns="http://www.w3.org/2000/svg">
<path d="M0.575784 20.5833C0.218803 20.2242 0.0184318 19.7384 0.0184318 19.2321C0.0184318 18.7257 0.218803 18.2399 0.575784 17.8808L7.36079 11L0.575785 4.215C0.218804 3.85589 0.0184325 3.37011 0.0184325 2.86375C0.0184326 2.3574 0.218804 1.87161 0.575785 1.5125C0.753964 1.33286 0.965949 1.19027 1.19951 1.09296C1.43308 0.995655 1.6836 0.945557 1.93662 0.945557C2.18964 0.945557 2.44016 0.995655 2.67372 1.09296C2.90729 1.19027 3.11927 1.33286 3.29745 1.5125L11.4241 9.63917C11.6038 9.81735 11.7464 10.0293 11.8437 10.2629C11.941 10.4965 11.9911 10.747 11.9911 11C11.9911 11.253 11.941 11.5035 11.8437 11.7371C11.7464 11.9707 11.6038 12.1827 11.4241 12.3608L3.29745 20.5833C3.11927 20.763 2.90729 20.9056 2.67372 21.0029C2.44016 21.1002 2.18964 21.1503 1.93662 21.1503C1.6836 21.1503 1.43308 21.1002 1.19951 21.0029C0.965949 20.9056 0.753963 20.763 0.575784 20.5833Z" fill="#007D51"/>
</svg>
