<svg width="12" height="22" viewBox="0 0 12 22" fill="none" xmlns="http://www.w3.org/2000/svg">
<path d="M11.4242 20.5833C11.7812 20.2242 11.9816 19.7384 11.9816 19.2321C11.9816 18.7257 11.7812 18.2399 11.4242 17.8808L4.63921 11L11.4242 4.215C11.7812 3.85589 11.9816 3.37011 11.9816 2.86375C11.9816 2.3574 11.7812 1.87161 11.4242 1.5125C11.246 1.33286 11.0341 1.19027 10.8005 1.09296C10.5669 0.995655 10.3164 0.945557 10.0634 0.945557C9.81036 0.945557 9.55984 0.995655 9.32628 1.09296C9.09271 1.19027 8.88073 1.33286 8.70255 1.5125L0.575879 9.63917C0.396233 9.81735 0.253644 10.0293 0.156338 10.2629C0.059031 10.4965 0.00893254 10.747 0.00893255 11C0.00893256 11.253 0.059031 11.5035 0.156338 11.7371C0.253644 11.9707 0.396233 12.1827 0.57588 12.3608L8.70255 20.5833C8.88073 20.763 9.09271 20.9056 9.32628 21.0029C9.55984 21.1002 9.81036 21.1503 10.0634 21.1503C10.3164 21.1503 10.5669 21.1002 10.8005 21.0029C11.0341 20.9056 11.246 20.763 11.4242 20.5833Z" fill="#007D51"/>
</svg>
