<svg width="36" height="36" viewBox="0 0 36 36" fill="none" xmlns="http://www.w3.org/2000/svg">
<path d="M12 28.5C10.8065 28.5 9.66193 28.0259 8.81802 27.182C7.97411 26.3381 7.5 25.1935 7.5 24V12C7.5 10.8065 7.97411 9.66193 8.81802 8.81802C9.66193 7.97411 10.8065 7.5 12 7.5C12.3978 7.5 12.7794 7.34196 13.0607 7.06066C13.342 6.77936 13.5 6.39782 13.5 6C13.5 5.60218 13.342 5.22064 13.0607 4.93934C12.7794 4.65804 12.3978 4.5 12 4.5C10.0109 4.5 8.10322 5.29018 6.6967 6.6967C5.29018 8.10322 4.5 10.0109 4.5 12V24C4.5 25.9891 5.29018 27.8968 6.6967 29.3033C8.10322 30.7098 10.0109 31.5 12 31.5C12.3978 31.5 12.7794 31.342 13.0607 31.0607C13.342 30.7794 13.5 30.3978 13.5 30C13.5 29.6022 13.342 29.2206 13.0607 28.9393C12.7794 28.658 12.3978 28.5 12 28.5ZM23.565 23.565C23.7056 23.4256 23.8172 23.2597 23.8933 23.0769C23.9695 22.8941 24.0087 22.698 24.0087 22.5C24.0087 22.302 23.9695 22.1059 23.8933 21.9231C23.8172 21.7403 23.7056 21.5744 23.565 21.435L20.115 18L23.565 14.565C23.8475 14.2825 24.0061 13.8995 24.0061 13.5C24.0061 13.1005 23.8475 12.7175 23.565 12.435C23.2825 12.1525 22.8995 11.9939 22.5 11.9939C22.1005 11.9939 21.7175 12.1525 21.435 12.435L18 15.885L14.565 12.435C14.2825 12.1525 13.8995 11.9939 13.5 11.9939C13.1005 11.9939 12.7175 12.1525 12.435 12.435C12.1525 12.7175 11.9939 13.1005 11.9939 13.5C11.9939 13.8995 12.1525 14.2825 12.435 14.565L15.885 18L12.435 21.435C12.2944 21.5744 12.1828 21.7403 12.1067 21.9231C12.0305 22.1059 11.9913 22.302 11.9913 22.5C11.9913 22.698 12.0305 22.8941 12.1067 23.0769C12.1828 23.2597 12.2944 23.4256 12.435 23.565C12.5744 23.7056 12.7403 23.8172 12.9231 23.8933C13.1059 23.9695 13.302 24.0087 13.5 24.0087C13.698 24.0087 13.8941 23.9695 14.0769 23.8933C14.2597 23.8172 14.4256 23.7056 14.565 23.565L18 20.115L21.435 23.565C21.5744 23.7056 21.7403 23.8172 21.9231 23.8933C22.1059 23.9695 22.302 24.0087 22.5 24.0087C22.698 24.0087 22.8941 23.9695 23.0769 23.8933C23.2597 23.8172 23.4256 23.7056 23.565 23.565ZM24 4.5C23.6022 4.5 23.2206 4.65804 22.9393 4.93934C22.658 5.22064 22.5 5.60218 22.5 6C22.5 6.39782 22.658 6.77936 22.9393 7.06066C23.2206 7.34196 23.6022 7.5 24 7.5C25.1935 7.5 26.3381 7.97411 27.182 8.81802C28.0259 9.66193 28.5 10.8065 28.5 12V24C28.5 25.1935 28.0259 26.3381 27.182 27.182C26.3381 28.0259 25.1935 28.5 24 28.5C23.6022 28.5 23.2206 28.658 22.9393 28.9393C22.658 29.2206 22.5 29.6022 22.5 30C22.5 30.3978 22.658 30.7794 22.9393 31.0607C23.2206 31.342 23.6022 31.5 24 31.5C25.9891 31.5 27.8968 30.7098 29.3033 29.3033C30.7098 27.8968 31.5 25.9891 31.5 24V12C31.5 10.0109 30.7098 8.10322 29.3033 6.6967C27.8968 5.29018 25.9891 4.5 24 4.5Z" fill="black"/>
</svg>
