<svg width="40" height="40" viewBox="0 0 40 40" fill="none" xmlns="http://www.w3.org/2000/svg">
<path d="M30.7 13.7006C29.6817 11.3606 27.9241 9.4191 25.6968 8.17352C23.4694 6.92793 20.8951 6.44703 18.3683 6.80449C15.8415 7.16195 13.5015 8.33806 11.7071 10.1526C9.91264 11.9671 8.76265 14.32 8.43333 16.8506C6.84431 17.2312 5.45037 18.182 4.51623 19.5226C3.58209 20.8632 3.17281 22.5002 3.36611 24.1227C3.55941 25.7451 4.34182 27.2401 5.56478 28.3237C6.78773 29.4073 8.36605 30.0041 10 30.0006H13.3333C13.7754 30.0006 14.1993 29.825 14.5118 29.5125C14.8244 29.1999 15 28.776 15 28.334C15 27.8919 14.8244 27.468 14.5118 27.1555C14.1993 26.8429 13.7754 26.6673 13.3333 26.6673H10C9.11595 26.6673 8.2681 26.3161 7.64298 25.691C7.01786 25.0659 6.66667 24.218 6.66667 23.334C6.66667 22.4499 7.01786 21.6021 7.64298 20.977C8.2681 20.3518 9.11595 20.0006 10 20.0006C10.442 20.0006 10.866 19.825 11.1785 19.5125C11.4911 19.1999 11.6667 18.776 11.6667 18.334C11.6709 16.3628 12.3738 14.4569 13.6505 12.9549C14.9271 11.453 16.6948 10.4522 18.6396 10.1304C20.5843 9.80863 22.5802 10.1866 24.2726 11.1973C25.965 12.208 27.2443 13.7859 27.8833 15.6506C27.9786 15.937 28.1499 16.1922 28.3788 16.3889C28.6078 16.5855 28.8858 16.7163 29.1833 16.7673C30.3403 16.9669 31.3901 17.5672 32.1489 18.4631C32.9076 19.359 33.3269 20.4933 33.3333 21.6673C33.3333 22.9934 32.8066 24.2652 31.8689 25.2028C30.9312 26.1405 29.6594 26.6673 28.3333 26.6673C27.8913 26.6673 27.4674 26.8429 27.1548 27.1555C26.8423 27.468 26.6667 27.8919 26.6667 28.334C26.6667 28.776 26.8423 29.1999 27.1548 29.5125C27.4674 29.825 27.8913 30.0006 28.3333 30.0006C30.3227 29.9823 32.2399 29.2528 33.7383 27.9441C35.2367 26.6354 36.2174 24.8339 36.5033 22.8651C36.7892 20.8963 36.3612 18.8901 35.2969 17.2094C34.2325 15.5286 32.602 14.284 30.7 13.7006ZM21.5333 31.034C21.5001 30.9316 21.4493 30.8357 21.3833 30.7506L21.1833 30.484C21.0213 30.3368 20.8353 30.2184 20.6333 30.134C20.3298 30.0063 19.9953 29.9715 19.672 30.0338C19.3487 30.0961 19.051 30.2527 18.8167 30.484L18.6167 30.7506C18.5507 30.8357 18.5 30.9316 18.4667 31.034C18.4186 31.1285 18.3849 31.2296 18.3667 31.334C18.3593 31.445 18.3593 31.5563 18.3667 31.6673C18.3585 31.7727 18.3585 31.8786 18.3667 31.984C18.3821 32.0944 18.4159 32.2014 18.4667 32.3006C18.5 32.403 18.5507 32.4989 18.6167 32.584L18.8167 32.8506C19.1361 33.1552 19.5587 33.3278 20 33.334C20.2178 33.3313 20.433 33.286 20.6333 33.2006C20.8353 33.1162 21.0213 32.9979 21.1833 32.8506L21.3833 32.584C21.4493 32.4989 21.5001 32.403 21.5333 32.3006C21.5841 32.2014 21.6179 32.0944 21.6333 31.984C21.6526 31.8794 21.6638 31.7736 21.6667 31.6673C21.6741 31.5563 21.6741 31.445 21.6667 31.334C21.638 31.2277 21.593 31.1265 21.5333 31.034ZM20 18.334C19.1218 18.3334 18.2589 18.5642 17.4982 19.003C16.7375 19.4419 16.1058 20.0734 15.6667 20.834C15.5565 21.0242 15.485 21.2343 15.4564 21.4523C15.4277 21.6703 15.4425 21.8917 15.4998 22.104C15.5571 22.3162 15.6559 22.515 15.7903 22.6889C15.9248 22.8628 16.0924 23.0084 16.2833 23.1173C16.666 23.3346 17.1191 23.3917 17.5438 23.2762C17.9684 23.1606 18.3301 22.8819 18.55 22.5006C18.6968 22.2463 18.9083 22.0353 19.1629 21.8889C19.4175 21.7426 19.7063 21.6661 20 21.6673C20.442 21.6673 20.866 21.8429 21.1785 22.1555C21.4911 22.468 21.6667 22.8919 21.6667 23.334C21.6667 23.776 21.4911 24.1999 21.1785 24.5125C20.866 24.825 20.442 25.0006 20 25.0006C19.558 25.0006 19.1341 25.1762 18.8215 25.4888C18.5089 25.8014 18.3333 26.2253 18.3333 26.6673C18.3333 27.1093 18.5089 27.5333 18.8215 27.8458C19.1341 28.1584 19.558 28.334 20 28.334C21.3261 28.334 22.5979 27.8072 23.5355 26.8695C24.4732 25.9318 25 24.6601 25 23.334C25 22.0079 24.4732 20.7361 23.5355 19.7984C22.5979 18.8608 21.3261 18.334 20 18.334Z" fill="#2BB174"/>
</svg>
