<svg width="644" height="644" viewBox="0 0 644 644" fill="none" xmlns="http://www.w3.org/2000/svg">
<path d="M539.414 27.692H70.7756V489.633H539.414V27.692Z" fill="#F3F3F3"/>
<path d="M539.414 27.692H70.7756V62.8544H539.414V27.692Z" fill="#E1E1E1"/>
<path d="M95.5052 51.2624C98.564 51.2624 101.044 48.7828 101.044 45.724C101.044 42.6652 98.564 40.1856 95.5052 40.1856C92.4464 40.1856 89.9668 42.6652 89.9668 45.724C89.9668 48.7828 92.4464 51.2624 95.5052 51.2624Z" fill="#FD8369"/>
<path d="M113.344 51.2624C116.403 51.2624 118.882 48.7828 118.882 45.724C118.882 42.6652 116.403 40.1856 113.344 40.1856C110.285 40.1856 107.806 42.6652 107.806 45.724C107.806 48.7828 110.285 51.2624 113.344 51.2624Z" fill="#FD8369"/>
<path d="M131.183 51.2624C134.242 51.2624 136.721 48.7828 136.721 45.724C136.721 42.6652 134.242 40.1856 131.183 40.1856C128.124 40.1856 125.645 42.6652 125.645 45.724C125.645 48.7828 128.124 51.2624 131.183 51.2624Z" fill="#FD8369"/>
<path d="M281.042 88.4856H93.702V189.98H281.042V88.4856Z" fill="white"/>
<path d="M281.042 214.066H93.702V315.56H281.042V214.066Z" fill="white"/>
<path d="M513.976 214.066H326.637V432.961H513.976V214.066Z" fill="white"/>
<path d="M570.777 95.8272H313.564V105.616H570.777V95.8272Z" fill="#E1E1E1"/>
<path d="M570.777 123.455H313.564V133.244H570.777V123.455Z" fill="#E1E1E1"/>
<path d="M570.777 151.082H313.564V160.871H570.777V151.082Z" fill="#E1E1E1"/>
<path d="M570.777 178.71H313.564V188.499H570.777V178.71Z" fill="#E1E1E1"/>
<path d="M454.149 486.993H444.296V501.934H454.149V486.993Z" fill="#DE8E68"/>
<path d="M570.262 550.105H560.409V565.046H570.262V550.105Z" fill="#DE8E68"/>
<path d="M516.617 348.726C504.703 348.726 451.508 401.598 446.872 410.486C442.235 419.373 443.587 488.989 443.587 488.989L455.05 491.179L473.662 426.328C481.776 425.362 515.908 418.02 533.554 403.788C551.2 389.491 531.88 357.613 531.88 357.613L516.617 348.726Z" fill="#6FC9CE"/>
<path d="M496.717 276.92C490.857 282.136 479.136 295.21 478.17 296.884C475.208 295.467 444.36 279.238 442.042 278.208C439.723 277.178 434.829 268.999 433.154 268.999C432.188 268.999 431.287 270.866 431.287 272.154C431.287 274.344 432.317 276.018 432.961 276.727C430.772 276.405 411.452 274.924 411.452 276.212C411.452 279.56 433.09 284.004 434.764 284.906C436.439 285.807 471.666 318.394 483.902 318.394C488.667 318.394 509.726 304.097 509.726 302.551C511.722 301.199 514.814 299.202 514.814 299.202V287.868L507.472 282.523C507.472 282.458 497.876 275.89 496.717 276.92Z" fill="#DE8E68"/>
<path d="M495.944 273.185C497.232 262.752 521.254 239.053 532.266 249.614C541.862 258.824 524.474 291.732 520.03 293.02C515.007 293.535 495.622 280.269 495.944 273.185Z" fill="#FEBF92"/>
<path d="M569.232 251.482C581.467 246.33 598.598 274.666 596.666 284.97C596.666 289.478 571.55 299.138 567.686 296.562C563.822 293.986 556.996 256.634 569.232 251.482Z" fill="#FED892"/>
<path d="M519.901 353.298L560.344 550.04H570.713L574.384 374.55C574.384 371.524 574.126 352.461 574.126 350.014C562.405 353.427 537.418 356.132 519.901 353.298Z" fill="#74D5DE"/>
<path d="M560.409 565.046H570.262V575.736H543.085L560.409 565.046Z" fill="black"/>
<path d="M444.296 501.934H454.149V512.624H426.972L444.296 501.934Z" fill="black"/>
<path d="M502.384 512.624H385.112V581.274H502.384V512.624Z" fill="#FD8369"/>
<path d="M90.6107 585.01L45.3375 584.494L29.4951 526.341H105.423L90.6107 585.01Z" fill="#FD8369"/>
<path d="M542.441 236.348C572.709 236.348 583.271 261.528 583.271 269.707C583.271 277.886 573.804 327.796 574.19 350.014C574.255 353.685 519.901 356.969 512.495 351.624C509.018 349.112 501.547 236.348 542.441 236.348Z" fill="#FECC92"/>
<path d="M596.666 284.97C605.231 298.108 604.716 328.376 604.716 332.948C604.716 337.52 572.773 378.608 570.004 378.608C568.33 376.933 563.693 371.846 563.693 370.3C565.174 367.595 584.172 326.057 587.586 323.095C586.04 321.227 572.452 299.911 571.872 296.369C583.786 294.372 595.313 289.349 596.666 284.97Z" fill="#DE8E68"/>
<path d="M596.666 284.97C598.598 274.666 582.949 244.784 569.231 251.482C557.317 257.342 563.822 293.986 567.686 296.562C572.323 298.558 594.863 291.796 596.666 284.97Z" fill="#FED892"/>
<path d="M534.713 230.166C534.069 232.162 533.747 238.344 534.456 241.114C534.52 241.242 547.335 242.208 548.752 239.954C548.817 238.087 551.908 221.472 556.094 216.32C556.48 215.74 555.643 214.13 555.643 214.13L540.767 220.312L534.713 230.166Z" fill="#D38466"/>
<path d="M553.969 215.547C554.935 216.835 556.158 217.414 557.253 217.414C559.7 217.414 565.367 215.16 565.367 207.11C565.367 201.314 559.7 198.352 559.7 195.583C559.7 192.942 560.409 192.878 560.409 190.688C560.409 189.594 559.314 185.987 555.901 185.987C553.969 185.987 553.26 187.597 551.328 187.597C549.203 187.597 547.271 183.476 544.051 183.476C541.861 183.476 539.801 185.536 537.482 185.536C534.842 185.536 533.039 181.608 529.368 181.608C525.568 181.608 524.216 185.021 522.735 185.021C520.867 185.021 520.545 184.506 518.678 184.506C517.518 184.506 513.976 186.567 513.976 190.302C513.976 192.942 515.071 197.257 520.545 197.257C523.765 197.257 525.568 202.345 528.402 202.345C529.497 202.345 530.463 201.443 530.72 201.894C531.815 203.826 534.069 209.107 534.069 209.107L544.309 214.838L553.969 215.547Z" fill="#FD8369"/>
<path d="M551.715 212.906C551.715 213.808 551.393 214.001 550.04 214.001C549.396 214.001 548.495 213.164 548.495 212.262C548.495 210.137 550.04 209.686 550.04 206.917C550.04 202.216 537.74 199.769 533.425 197.322C531.88 198.867 530.785 200.864 530.334 203.118L527.565 217.35C526.341 223.532 530.398 229.522 536.516 230.745C542.634 231.969 548.688 227.912 549.912 221.794L550.362 219.346C550.62 219.411 550.878 219.475 551.071 219.475C552.681 219.475 553.904 217.994 553.904 216.191C554.033 214.516 551.715 211.554 551.715 212.906Z" fill="#DE8E68"/>
<path d="M73.9312 503.544C60.858 416.024 28.8512 370.107 24.794 371.846C19.0624 374.357 17.388 423.494 27.6276 474.242C27.8852 474.242 28.0784 474.177 28.336 474.177C31.2984 474.177 33.6812 476.56 33.6812 479.522C33.6812 480.424 33.488 481.261 33.1016 481.97C34.8404 482.871 36.064 484.674 36.064 486.735C36.064 489.311 34.1964 491.501 31.7492 492.016C34.776 503.737 38.5756 515.329 43.0836 526.084C45.402 526.084 71.4196 526.084 71.4196 526.084C71.4196 526.084 75.8632 516.295 73.9312 503.544Z" fill="#6FC9CE"/>
<path d="M149.601 410.743C141.68 410.743 133.179 433.541 123.777 433.541C121.716 433.541 120.364 431.287 120.364 429.162C120.364 427.101 126.868 404.432 126.868 393.42C126.868 392.454 126.804 391.423 126.675 390.393C125.644 391.037 124.356 391.423 123.068 391.423C119.204 391.423 116.049 388.268 116.049 384.404C116.049 380.99 118.432 378.221 121.652 377.513C118.367 373.327 113.537 370.364 106.968 370.364C98.6608 370.364 86.94 377.77 86.94 389.234C86.94 392.454 87.906 400.632 87.906 408.038C87.906 450.027 54.9976 456.338 54.9976 502.835C54.9976 512.624 60.4072 523.379 62.0172 526.019C62.0172 526.019 89.5804 526.341 92.2208 526.341C94.8612 526.341 116.306 490.535 118.754 486.735C128.092 472.31 159.132 456.467 159.132 422.013C159.132 417.183 157.394 410.743 149.601 410.743Z" fill="#74D5DE"/>
</svg>
