<svg width="27" height="31" viewBox="0 0 27 31" fill="none" xmlns="http://www.w3.org/2000/svg">
<path d="M10.5833 24.2503C10.9701 24.2503 11.341 24.0967 11.6145 23.8232C11.888 23.5497 12.0417 23.1788 12.0417 22.792V14.042C12.0417 13.6552 11.888 13.2843 11.6145 13.0108C11.341 12.7373 10.9701 12.5837 10.5833 12.5837C10.1966 12.5837 9.82563 12.7373 9.55214 13.0108C9.27865 13.2843 9.125 13.6552 9.125 14.042V22.792C9.125 23.1788 9.27865 23.5497 9.55214 23.8232C9.82563 24.0967 10.1966 24.2503 10.5833 24.2503ZM25.1667 6.75033H19.3333V5.29199C19.3333 4.13167 18.8724 3.01887 18.0519 2.1984C17.2315 1.37793 16.1187 0.916992 14.9583 0.916992H12.0417C10.8813 0.916992 9.76855 1.37793 8.94807 2.1984C8.1276 3.01887 7.66667 4.13167 7.66667 5.29199V6.75033H1.83333C1.44656 6.75033 1.07563 6.90397 0.802136 7.17746C0.528645 7.45095 0.375 7.82189 0.375 8.20866C0.375 8.59543 0.528645 8.96637 0.802136 9.23986C1.07563 9.51335 1.44656 9.66699 1.83333 9.66699H3.29167V25.7087C3.29167 26.869 3.7526 27.9818 4.57307 28.8023C5.39355 29.6227 6.50634 30.0837 7.66667 30.0837H19.3333C20.4937 30.0837 21.6065 29.6227 22.4269 28.8023C23.2474 27.9818 23.7083 26.869 23.7083 25.7087V9.66699H25.1667C25.5534 9.66699 25.9244 9.51335 26.1979 9.23986C26.4714 8.96637 26.625 8.59543 26.625 8.20866C26.625 7.82189 26.4714 7.45095 26.1979 7.17746C25.9244 6.90397 25.5534 6.75033 25.1667 6.75033ZM10.5833 5.29199C10.5833 4.90522 10.737 4.53429 11.0105 4.2608C11.284 3.9873 11.6549 3.83366 12.0417 3.83366H14.9583C15.3451 3.83366 15.716 3.9873 15.9895 4.2608C16.263 4.53429 16.4167 4.90522 16.4167 5.29199V6.75033H10.5833V5.29199ZM20.7917 25.7087C20.7917 26.0954 20.638 26.4664 20.3645 26.7399C20.091 27.0134 19.7201 27.167 19.3333 27.167H7.66667C7.27989 27.167 6.90896 27.0134 6.63547 26.7399C6.36198 26.4664 6.20833 26.0954 6.20833 25.7087V9.66699H20.7917V25.7087ZM16.4167 24.2503C16.8034 24.2503 17.1744 24.0967 17.4479 23.8232C17.7214 23.5497 17.875 23.1788 17.875 22.792V14.042C17.875 13.6552 17.7214 13.2843 17.4479 13.0108C17.1744 12.7373 16.8034 12.5837 16.4167 12.5837C16.0299 12.5837 15.659 12.7373 15.3855 13.0108C15.112 13.2843 14.9583 13.6552 14.9583 14.042V22.792C14.9583 23.1788 15.112 23.5497 15.3855 23.8232C15.659 24.0967 16.0299 24.2503 16.4167 24.2503Z" fill="#FF0000"/>
</svg>
