<svg width="31" height="31" viewBox="0 0 31 31" fill="none" xmlns="http://www.w3.org/2000/svg">
<path d="M28.6251 15.5C28.2383 15.5 27.8674 15.6536 27.5939 15.9271C27.3204 16.2006 27.1667 16.5716 27.1667 16.9583V25.7083C27.1667 26.0951 27.0131 26.466 26.7396 26.7395C26.4661 27.013 26.0952 27.1667 25.7084 27.1667H5.29175C4.90497 27.1667 4.53404 27.013 4.26055 26.7395C3.98706 26.466 3.83341 26.0951 3.83341 25.7083V5.29166C3.83341 4.90489 3.98706 4.53395 4.26055 4.26046C4.53404 3.98697 4.90497 3.83333 5.29175 3.83333H14.0417C14.4285 3.83333 14.7995 3.67968 15.0729 3.40619C15.3464 3.1327 15.5001 2.76177 15.5001 2.37499C15.5001 1.98822 15.3464 1.61729 15.0729 1.34379C14.7995 1.0703 14.4285 0.916659 14.0417 0.916659H5.29175C4.13143 0.916659 3.01863 1.3776 2.19816 2.19807C1.37768 3.01854 0.916748 4.13134 0.916748 5.29166V25.7083C0.916748 26.8686 1.37768 27.9814 2.19816 28.8019C3.01863 29.6224 4.13143 30.0833 5.29175 30.0833H25.7084C26.8687 30.0833 27.9815 29.6224 28.802 28.8019C29.6225 27.9814 30.0834 26.8686 30.0834 25.7083V16.9583C30.0834 16.5716 29.9298 16.2006 29.6563 15.9271C29.3828 15.6536 29.0119 15.5 28.6251 15.5ZM6.75008 16.6083V22.7917C6.75008 23.1784 6.90373 23.5494 7.17722 23.8229C7.45071 24.0963 7.82164 24.25 8.20842 24.25H14.3917C14.5837 24.2511 14.7739 24.2143 14.9516 24.1417C15.1293 24.0692 15.2909 23.9622 15.4272 23.8271L25.5188 13.7208L29.6605 9.66666C29.7972 9.53109 29.9057 9.36979 29.9797 9.19208C30.0538 9.01437 30.0919 8.82376 30.0919 8.63124C30.0919 8.43872 30.0538 8.24811 29.9797 8.0704C29.9057 7.89269 29.7972 7.7314 29.6605 7.59583L23.4772 1.33958C23.3416 1.20289 23.1803 1.0944 23.0026 1.02036C22.8249 0.946321 22.6343 0.908203 22.4417 0.908203C22.2492 0.908203 22.0586 0.946321 21.8809 1.02036C21.7032 1.0944 21.5419 1.20289 21.4063 1.33958L17.2938 5.46666L7.173 15.5729C7.03784 15.7092 6.93091 15.8708 6.85833 16.0485C6.78576 16.2261 6.74897 16.4164 6.75008 16.6083ZM22.4417 4.43124L26.5688 8.55833L24.498 10.6292L20.3709 6.50208L22.4417 4.43124ZM9.66675 17.2062L18.3147 8.55833L22.4417 12.6854L13.7938 21.3333H9.66675V17.2062Z" fill="#0077D5"/>
</svg>
