<svg width="16" height="16" viewBox="0 0 16 16" fill="none" xmlns="http://www.w3.org/2000/svg">
<path d="M14.3535 5.8527C14.3071 5.89914 14.252 5.93598 14.1913 5.96112C14.1307 5.98626 14.0656 5.9992 14 5.99921C13.9343 5.99921 13.8693 5.98628 13.8086 5.96116C13.748 5.93603 13.6929 5.89919 13.6464 5.85276L12 4.20657V8.99964C12 9.13225 11.9473 9.25942 11.8536 9.35319C11.7598 9.44696 11.6326 9.49964 11.5 9.49964C11.3674 9.49964 11.2402 9.44696 11.1464 9.35319C11.0527 9.25942 11 9.13225 11 8.99964V4.20676L9.35356 5.85314C9.30713 5.89957 9.252 5.9364 9.19133 5.96152C9.13067 5.98665 9.06564 5.99958 8.99998 5.99958C8.93431 5.99957 8.86929 5.98664 8.80862 5.96151C8.74796 5.93637 8.69284 5.89954 8.64641 5.85311C8.59998 5.80667 8.56315 5.75155 8.53802 5.69088C8.51289 5.63021 8.49996 5.56519 8.49996 5.49952C8.49997 5.43386 8.5129 5.36883 8.53804 5.30817C8.56317 5.2475 8.6 5.19238 8.64644 5.14595L11.1464 2.64595C11.1481 2.64439 11.1498 2.64301 11.1514 2.64151C11.1616 2.63151 11.1721 2.62195 11.183 2.61295C11.1891 2.60795 11.1954 2.60364 11.2016 2.59901C11.2085 2.59389 11.2152 2.58857 11.2223 2.58382C11.2295 2.57901 11.2369 2.57482 11.2443 2.57045C11.251 2.56645 11.2574 2.56232 11.2643 2.55857C11.2717 2.5547 11.2792 2.55139 11.2866 2.54789C11.294 2.54439 11.3012 2.5407 11.3088 2.53757C11.3158 2.5347 11.323 2.53232 11.3301 2.52976C11.3384 2.52676 11.3466 2.52364 11.3551 2.52101C11.3619 2.51901 11.3689 2.51745 11.3759 2.5157C11.3848 2.51345 11.3935 2.51101 11.4026 2.5092C11.4102 2.5077 11.4179 2.50682 11.4257 2.50564C11.4341 2.50439 11.4424 2.50289 11.4509 2.50201C11.4637 2.50076 11.4764 2.50032 11.4893 2.50014C11.4929 2.50001 11.4964 2.49951 11.5 2.49951C11.5038 2.49951 11.5076 2.50001 11.5114 2.50014C11.5239 2.50039 11.5364 2.50076 11.549 2.50201C11.5577 2.50289 11.5662 2.50451 11.5749 2.50576C11.5824 2.50689 11.5899 2.5077 11.5973 2.5092C11.6067 2.51107 11.6156 2.51357 11.6248 2.51589C11.6314 2.51757 11.6382 2.51901 11.6447 2.52101C11.6535 2.5237 11.6621 2.52695 11.6706 2.53007C11.6774 2.53257 11.6843 2.53476 11.6911 2.53757C11.6989 2.54082 11.7066 2.54464 11.7142 2.54826C11.7213 2.5517 11.7286 2.55482 11.7354 2.55851C11.7428 2.56239 11.7496 2.56682 11.7567 2.57101C11.7637 2.5752 11.7707 2.57914 11.7775 2.5837C11.7851 2.58882 11.7923 2.59445 11.7996 2.59995C11.8054 2.60432 11.8113 2.60826 11.8169 2.61289C11.829 2.62276 11.8406 2.63332 11.8518 2.64432C11.8524 2.64495 11.853 2.64539 11.8535 2.64595L14.3535 5.14551C14.3999 5.19194 14.4368 5.24706 14.4619 5.30773C14.487 5.36839 14.5 5.43341 14.5 5.49907C14.5 5.56474 14.487 5.62976 14.4619 5.69042C14.4368 5.75109 14.3999 5.80621 14.3535 5.85264V5.8527ZM3 8.49957H7.49994C7.63255 8.49957 7.75972 8.4469 7.85349 8.35313C7.94726 8.25936 7.99994 8.13218 7.99994 7.99957C7.99994 7.86697 7.94726 7.73979 7.85349 7.64602C7.75972 7.55225 7.63255 7.49957 7.49994 7.49957H3C2.86739 7.49957 2.74021 7.55225 2.64645 7.64602C2.55268 7.73979 2.5 7.86697 2.5 7.99957C2.5 8.13218 2.55268 8.25936 2.64645 8.35313C2.74021 8.4469 2.86739 8.49957 3 8.49957ZM3 4.49957H6.49994C6.63255 4.49957 6.75972 4.4469 6.85349 4.35313C6.94726 4.25936 6.99994 4.13218 6.99994 3.99957C6.99994 3.86697 6.94726 3.73979 6.85349 3.64602C6.75972 3.55225 6.63255 3.49957 6.49994 3.49957H3C2.86739 3.49957 2.74021 3.55225 2.64645 3.64602C2.55268 3.73979 2.5 3.86697 2.5 3.99957C2.5 4.13218 2.55268 4.25936 2.64645 4.35313C2.74021 4.4469 2.86739 4.49957 3 4.49957ZM11.4999 11.4996H3C2.86739 11.4996 2.74021 11.5523 2.64645 11.646C2.55268 11.7398 2.5 11.867 2.5 11.9996C2.5 12.1322 2.55268 12.2594 2.64645 12.3531C2.74021 12.4469 2.86739 12.4996 3 12.4996H11.4999C11.6325 12.4996 11.7597 12.4469 11.8535 12.3531C11.9473 12.2594 11.9999 12.1322 11.9999 11.9996C11.9999 11.867 11.9473 11.7398 11.8535 11.646C11.7597 11.5523 11.6325 11.4996 11.4999 11.4996Z" fill="#007D51"/>
</svg>
