<svg width="16" height="16" viewBox="0 0 16 16" fill="none" xmlns="http://www.w3.org/2000/svg">
  <path d="M14.3534 10.8535L11.8535 13.3531C11.8529 13.3537 11.8523 13.3541 11.8517 13.3548C11.8406 13.3657 11.829 13.3762 11.8169 13.3861C11.8111 13.3909 11.805 13.3951 11.7991 13.3995C11.7919 13.4048 11.785 13.4103 11.7776 13.4153C11.7705 13.42 11.7632 13.4241 11.7559 13.4284C11.7492 13.4324 11.7426 13.4367 11.7357 13.4404C11.7282 13.4444 11.7207 13.4477 11.7132 13.4513C11.7059 13.4547 11.6988 13.4583 11.6913 13.4614C11.684 13.4644 11.6766 13.4669 11.6691 13.4695C11.6612 13.4724 11.6533 13.4754 11.6451 13.4779C11.6377 13.4801 11.6302 13.4818 11.6228 13.4837C11.6144 13.4858 11.6061 13.4881 11.5977 13.4898C11.5889 13.4915 11.5803 13.4925 11.5716 13.4938C11.5641 13.4948 11.5568 13.4963 11.5493 13.4969C11.5165 13.5002 11.4834 13.5002 11.4506 13.4969C11.4433 13.4963 11.4361 13.4949 11.4288 13.4938C11.4199 13.4926 11.4111 13.4915 11.4023 13.4898C11.3939 13.4881 11.3858 13.4858 11.3776 13.4838C11.3699 13.4819 11.3623 13.4802 11.3549 13.4779C11.3467 13.4754 11.3391 13.4724 11.3311 13.4696C11.3236 13.4669 11.3161 13.4644 11.3086 13.4614C11.3014 13.4584 11.2944 13.4548 11.2873 13.4514C11.2796 13.4478 11.2718 13.4444 11.2642 13.4404C11.2576 13.4368 11.2513 13.4327 11.2448 13.4289C11.2373 13.4244 11.2296 13.4201 11.2222 13.4152C11.2153 13.4105 11.2087 13.4053 11.2019 13.4002C11.1956 13.3955 11.1891 13.3911 11.183 13.3861C11.1721 13.377 11.1616 13.3676 11.1515 13.3576C11.1499 13.3561 11.1481 13.3547 11.1465 13.3531L8.6465 10.8531C8.55272 10.7593 8.50003 10.6321 8.50002 10.4995C8.50001 10.3669 8.55268 10.2397 8.64644 10.1459C8.7402 10.0522 8.86737 9.99948 8.99999 9.99947C9.1326 9.99946 9.25978 10.0521 9.35356 10.1459L11 11.7924V6.99951C11 6.8669 11.0527 6.73973 11.1464 6.64596C11.2402 6.55219 11.3674 6.49951 11.5 6.49951C11.6326 6.49951 11.7598 6.55219 11.8536 6.64596C11.9473 6.73973 12 6.8669 12 6.99951V11.7925L13.6464 10.1463C13.6928 10.0994 13.7479 10.0622 13.8087 10.0367C13.8695 10.0112 13.9347 9.99797 14.0006 9.99777C14.0665 9.99758 14.1319 10.0104 14.1928 10.0356C14.2537 10.0607 14.3091 10.0976 14.3557 10.1443C14.4023 10.1909 14.4392 10.2463 14.4643 10.3072C14.4895 10.3681 14.5023 10.4334 14.5021 10.4994C14.5019 10.5653 14.4886 10.6305 14.4631 10.6913C14.4376 10.7521 14.4003 10.8072 14.3534 10.8535ZM7.5 7.49951H3C2.86739 7.49951 2.74021 7.55219 2.64645 7.64596C2.55268 7.73973 2.5 7.8669 2.5 7.99951C2.5 8.13212 2.55268 8.2593 2.64645 8.35306C2.74021 8.44683 2.86739 8.49951 3 8.49951H7.49994C7.63255 8.49951 7.75972 8.44683 7.85349 8.35306C7.94726 8.2593 7.99994 8.13212 7.99994 7.99951C7.99994 7.8669 7.94726 7.73973 7.85349 7.64596C7.75972 7.55219 7.63255 7.49951 7.49994 7.49951H7.5ZM3 4.49951H11.4999C11.6325 4.49951 11.7597 4.44683 11.8535 4.35307C11.9473 4.2593 11.9999 4.13212 11.9999 3.99951C11.9999 3.8669 11.9473 3.73973 11.8535 3.64596C11.7597 3.55219 11.6325 3.49951 11.4999 3.49951H3C2.86739 3.49951 2.74021 3.55219 2.64645 3.64596C2.55268 3.73973 2.5 3.8669 2.5 3.99951C2.5 4.13212 2.55268 4.2593 2.64645 4.35307C2.74021 4.44683 2.86739 4.49951 3 4.49951ZM6.5 11.4995H3C2.86739 11.4995 2.74021 11.5522 2.64645 11.646C2.55268 11.7397 2.5 11.8669 2.5 11.9995C2.5 12.1321 2.55268 12.2593 2.64645 12.3531C2.74021 12.4468 2.86739 12.4995 3 12.4995H6.5C6.63261 12.4995 6.75979 12.4468 6.85355 12.3531C6.94732 12.2593 7 12.1321 7 11.9995C7 11.8669 6.94732 11.7397 6.85355 11.646C6.75979 11.5522 6.63261 11.4995 6.5 11.4995Z" fill="#007D51"/>
</svg>
