<svg width="102" height="102" viewBox="0 0 102 102" fill="none" xmlns="http://www.w3.org/2000/svg">
<path d="M69.859 54.6092C74.8427 50.6882 78.4803 45.3114 80.2658 39.2267C82.0513 33.1421 81.896 26.6522 79.8213 20.66C77.7466 14.6677 73.8558 9.47116 68.6902 5.79319C63.5246 2.11521 57.3411 0.138733 50.9999 0.138733C44.6587 0.138733 38.4751 2.11521 33.3095 5.79319C28.1439 9.47116 24.2531 14.6677 22.1784 20.66C20.1038 26.6522 19.9484 33.1421 21.7339 39.2267C23.5194 45.3114 27.157 50.6882 32.1407 54.6092C23.6011 58.0305 16.15 63.705 10.5817 71.0279C5.01348 78.3508 1.53681 87.0475 0.522361 96.1908C0.44893 96.8584 0.507703 97.5339 0.695324 98.1787C0.882944 98.8235 1.19574 99.4251 1.61584 99.9491C2.46429 101.007 3.69834 101.685 5.04653 101.833C6.39471 101.982 7.74659 101.588 8.80476 100.74C9.86294 99.8914 10.5407 98.6574 10.689 97.3092C11.8053 87.3722 16.5434 78.1949 23.9983 71.5305C31.4532 64.8662 41.1021 61.1821 51.1015 61.1821C61.101 61.1821 70.7499 64.8662 78.2048 71.5305C85.6596 78.1949 90.3978 87.3722 91.514 97.3092C91.6522 98.5582 92.2482 99.7118 93.187 100.547C94.1257 101.383 95.3407 101.841 96.5974 101.833H97.1565C98.4891 101.68 99.707 101.006 100.545 99.9589C101.383 98.9115 101.773 97.5753 101.63 96.2417C100.611 87.0724 97.1152 78.3533 91.5183 71.0192C85.9215 63.6851 78.4342 58.0124 69.859 54.6092ZM50.9999 51C46.9783 51 43.0471 49.8075 39.7033 47.5732C36.3595 45.339 33.7533 42.1633 32.2143 38.4479C30.6753 34.7325 30.2727 30.6441 31.0572 26.6998C31.8418 22.7556 33.7784 19.1325 36.622 16.2888C39.4657 13.4452 43.0887 11.5086 47.033 10.724C50.9773 9.93947 55.0657 10.3421 58.7811 11.8811C62.4965 13.4201 65.6722 16.0263 67.9064 19.3701C70.1407 22.7139 71.3332 26.6451 71.3332 30.6667C71.3332 36.0594 69.1909 41.2313 65.3777 45.0445C61.5645 48.8577 56.3926 51 50.9999 51Z" fill="#F4F7F8"/>
</svg>
